<svg class="animated" xmlns="http://www.w3.org/2000/svg" viewBox="0 0 500 500" version="1.1" xmlns:xlink="http://www.w3.org/1999/xlink" xmlns:svgjs="http://svgjs.com/svgjs" width="640" height="289"><style>svg:not(.animated) .animable {opacity: 0;}.animated #elu83o31aiv7n {animation: 1s 1 forwards cubic-bezier(.36,-0.01,.5,1.38) slideDown;animation-delay: 0s;}.animated #elnco71fyi8vh {animation: 1s 1 forwards cubic-bezier(.36,-0.01,.5,1.38) slideDown;animation-delay: 0.030303030303030304s;opacity: 0}.animated #elpaoz50jtb1 {animation: 1s 1 forwards cubic-bezier(.36,-0.01,.5,1.38) slideDown;animation-delay: 0.06060606060606061s;opacity: 0}.animated #el592vf63b8c2 {animation: 1s 1 forwards cubic-bezier(.36,-0.01,.5,1.38) slideDown;animation-delay: 0.09090909090909091s;opacity: 0}.animated #elx78jt3p6so {animation: 1s 1 forwards cubic-bezier(.36,-0.01,.5,1.38) slideDown;animation-delay: 0.12121212121212122s;opacity: 0}.animated #elwkhbooouk7g {animation: 1s 1 forwards cubic-bezier(.36,-0.01,.5,1.38) slideDown;animation-delay: 0.15151515151515152s;opacity: 0}.animated #el882rf7xld1v {animation: 1s 1 forwards cubic-bezier(.36,-0.01,.5,1.38) slideDown;animation-delay: 0.18181818181818182s;opacity: 0}.animated #ellbrbigtu8wn {animation: 1s 1 forwards cubic-bezier(.36,-0.01,.5,1.38) slideDown;animation-delay: 0.21212121212121213s;opacity: 0}.animated #elv8rref1jl9 {animation: 1s 1 forwards cubic-bezier(.36,-0.01,.5,1.38) slideDown;animation-delay: 0.24242424242424243s;opacity: 0}.animated #elgdpu1ztp6wq {animation: 1s 1 forwards cubic-bezier(.36,-0.01,.5,1.38) slideDown;animation-delay: 0.2727272727272727s;opacity: 0}.animated #eluaqbumlj7b {animation: 1s 1 forwards cubic-bezier(.36,-0.01,.5,1.38) slideDown;animation-delay: 0.30303030303030304s;opacity: 0}.animated #elh1wsjhuqls {animation: 1s 1 forwards cubic-bezier(.36,-0.01,.5,1.38) slideDown;animation-delay: 0.33333333333333337s;opacity: 0}.animated #ely4p4alwh0ii {animation: 1s 1 forwards cubic-bezier(.36,-0.01,.5,1.38) slideDown;animation-delay: 0.36363636363636365s;opacity: 0}.animated #elc35uv2mddq8 {animation: 1s 1 forwards cubic-bezier(.36,-0.01,.5,1.38) slideDown;animation-delay: 0.3939393939393939s;opacity: 0}.animated #el2nz58e7e3s {animation: 1s 1 forwards cubic-bezier(.36,-0.01,.5,1.38) slideDown;animation-delay: 0.42424242424242425s;opacity: 0}.animated #eluddhbveo32r {animation: 1s 1 forwards cubic-bezier(.36,-0.01,.5,1.38) slideDown;animation-delay: 0.4545454545454546s;opacity: 0}.animated #el88te9jddf6c {animation: 1s 1 forwards cubic-bezier(.36,-0.01,.5,1.38) slideDown;animation-delay: 0.48484848484848486s;opacity: 0}.animated #elv5ry64yk7nf {animation: 1s 1 forwards cubic-bezier(.36,-0.01,.5,1.38) slideDown;animation-delay: 0.5151515151515151s;opacity: 0}.animated #el21zdiwj5hq2 {animation: 1s 1 forwards cubic-bezier(.36,-0.01,.5,1.38) slideDown;animation-delay: 0.5454545454545454s;opacity: 0}.animated #elsu1z6efqi7 {animation: 1s 1 forwards cubic-bezier(.36,-0.01,.5,1.38) slideDown;animation-delay: 0.5757575757575758s;opacity: 0}.animated #eljwmh65vxj29 {animation: 1s 1 forwards cubic-bezier(.36,-0.01,.5,1.38) slideDown;animation-delay: 0.6060606060606061s;opacity: 0}.animated #el5i1gd1g056l {animation: 1s 1 forwards cubic-bezier(.36,-0.01,.5,1.38) slideDown;animation-delay: 0.6363636363636364s;opacity: 0}.animated #elmtgigpynlk {animation: 1s 1 forwards cubic-bezier(.36,-0.01,.5,1.38) slideDown;animation-delay: 0.6666666666666667s;opacity: 0}.animated #el63n70coi5k7 {animation: 1s 1 forwards cubic-bezier(.36,-0.01,.5,1.38) slideDown;animation-delay: 0.696969696969697s;opacity: 0}.animated #elgj29f18hzq {animation: 1s 1 forwards cubic-bezier(.36,-0.01,.5,1.38) slideDown;animation-delay: 0.7272727272727273s;opacity: 0}.animated #elxy0t7a0ss5 {animation: 1s 1 forwards cubic-bezier(.36,-0.01,.5,1.38) slideDown;animation-delay: 0.7575757575757576s;opacity: 0}.animated #el55ljmb7b2o8 {animation: 1s 1 forwards cubic-bezier(.36,-0.01,.5,1.38) slideDown;animation-delay: 0.7878787878787878s;opacity: 0}.animated #eldsci9o7zfmi {animation: 1s 1 forwards cubic-bezier(.36,-0.01,.5,1.38) slideDown;animation-delay: 0.8181818181818182s;opacity: 0}.animated #elt3lm7p52eah {animation: 1s 1 forwards cubic-bezier(.36,-0.01,.5,1.38) slideDown;animation-delay: 0.8484848484848485s;opacity: 0}.animated #elunxnquuevhe {animation: 1s 1 forwards cubic-bezier(.36,-0.01,.5,1.38) slideDown;animation-delay: 0.8787878787878788s;opacity: 0}.animated #el83w7pffhhsx {animation: 1s 1 forwards cubic-bezier(.36,-0.01,.5,1.38) slideDown;animation-delay: 0.9090909090909092s;opacity: 0}.animated #elq6b7h17klj {animation: 1s 1 forwards cubic-bezier(.36,-0.01,.5,1.38) slideDown;animation-delay: 0.9393939393939394s;opacity: 0}.animated #el2dyl5zs0qr8 {animation: 1s 1 forwards cubic-bezier(.36,-0.01,.5,1.38) slideDown;animation-delay: 0.9696969696969697s;opacity: 0}.animated #Trees--inject-67 {animation: 1s 1 forwards cubic-bezier(.36,-0.01,.5,1.38) slideDown;animation-delay: 0s;}            @keyframes slideDown {                0% {                    opacity: 0;                    transform: translateY(-30px);                }                100% {                    opacity: 1;                    transform: translateY(0);                }            }        </style><g id="Trees--inject-67" class="animable animator-active" style="transform-origin: 249.986px 232.085px;"><path d="M403,228.6s22.92,2.27,34.53,16.48c0,0,12.28-16.46,34.32-16.12a44.55,44.55,0,1,0-68.86-.32Z" style="fill: rgb(146, 227, 188); transform-origin: 437.551px 200.53px;" id="elu83o31aiv7n" class="animable"></path><g id="elnco71fyi8vh"><path d="M403,228.6s22.92,2.27,34.53,16.48c0,0,12.28-16.46,34.32-16.12a44.55,44.55,0,1,0-68.86-.32Z" style="fill: rgb(255, 255, 255); opacity: 0.5; transform-origin: 437.551px 200.53px;" class="animable"></path></g><polygon points="436.76 159.12 435.99 307.66 439.86 307.66 436.76 159.12" style="fill: rgb(184, 184, 184); transform-origin: 437.925px 233.39px;" id="elpaoz50jtb1" class="animable"></polygon><path d="M437.93,240.75s7.73-13.93,21.66-18.19c0,0-14.7,3.49-22,15.48Z" style="fill: rgb(184, 184, 184); transform-origin: 448.59px 231.655px;" id="el592vf63b8c2" class="animable"></path><path d="M437.93,201.29s7.73-13.93,21.66-18.19c0,0-14.7,3.48-22,15.48Z" style="fill: rgb(184, 184, 184); transform-origin: 448.59px 192.195px;" id="elx78jt3p6so" class="animable"></path><path d="M437.93,221s7.73-13.93,21.66-18.19c0,0-14.7,3.49-22,15.48Z" style="fill: rgb(184, 184, 184); transform-origin: 448.59px 211.905px;" id="elwkhbooouk7g" class="animable"></path><path d="M436.78,211.34s-7.47-13.92-20.91-18.18c0,0,14.19,3.48,21.28,15.48Z" style="fill: rgb(184, 184, 184); transform-origin: 426.51px 202.25px;" id="el882rf7xld1v" class="animable"></path><path d="M436.78,230.69s-7.47-13.93-20.91-18.18c0,0,14.19,3.48,21.28,15.47Z" style="fill: rgb(184, 184, 184); transform-origin: 426.51px 221.6px;" id="ellbrbigtu8wn" class="animable"></path><path d="M27.87,228.6s22.92,2.27,34.53,16.48c0,0,12.28-16.46,34.32-16.12a44.55,44.55,0,1,0-68.86-.32Z" style="fill: rgb(146, 227, 188); transform-origin: 62.4214px 200.53px;" id="elv8rref1jl9" class="animable"></path><g id="elgdpu1ztp6wq"><path d="M27.87,228.6s22.92,2.27,34.53,16.48c0,0,12.28-16.46,34.32-16.12a44.55,44.55,0,1,0-68.86-.32Z" style="fill: rgb(255, 255, 255); opacity: 0.5; transform-origin: 62.4214px 200.53px;" class="animable"></path></g><polygon points="61.65 159.12 60.87 307.66 64.74 307.66 61.65 159.12" style="fill: rgb(184, 184, 184); transform-origin: 62.805px 233.39px;" id="eluaqbumlj7b" class="animable"></polygon><path d="M62.81,240.75s7.73-13.93,21.66-18.19c0,0-14.7,3.49-22,15.48Z" style="fill: rgb(184, 184, 184); transform-origin: 73.47px 231.655px;" id="elh1wsjhuqls" class="animable"></path><path d="M62.81,201.29s7.73-13.93,21.66-18.19c0,0-14.7,3.48-22,15.48Z" style="fill: rgb(184, 184, 184); transform-origin: 73.47px 192.195px;" id="ely4p4alwh0ii" class="animable"></path><path d="M62.81,221s7.73-13.93,21.66-18.19c0,0-14.7,3.49-22,15.48Z" style="fill: rgb(184, 184, 184); transform-origin: 73.47px 211.905px;" id="elc35uv2mddq8" class="animable"></path><path d="M61.66,211.34s-7.47-13.92-20.91-18.18c0,0,14.19,3.48,21.28,15.48Z" style="fill: rgb(184, 184, 184); transform-origin: 51.39px 202.25px;" id="el2nz58e7e3s" class="animable"></path><path d="M61.66,230.69s-7.47-13.93-20.91-18.18c0,0,14.19,3.48,21.28,15.47Z" style="fill: rgb(184, 184, 184); transform-origin: 51.39px 221.6px;" id="eluddhbveo32r" class="animable"></path><path d="M309.87,243s18.76,1.85,28.26,13.48c0,0,10.05-13.47,28.09-13.2a36.46,36.46,0,1,0-56.36-.25Z" style="fill: rgb(146, 227, 188); transform-origin: 338.143px 220.02px;" id="el88te9jddf6c" class="animable"></path><g id="elv5ry64yk7nf"><path d="M309.87,243s18.76,1.85,28.26,13.48c0,0,10.05-13.47,28.09-13.2a36.46,36.46,0,1,0-56.36-.25Z" style="fill: rgb(255, 255, 255); opacity: 0.5; transform-origin: 338.143px 220.02px;" class="animable"></path></g><polygon points="337.51 186.08 336.88 307.66 340.05 307.66 337.51 186.08" style="fill: rgb(184, 184, 184); transform-origin: 338.465px 246.87px;" id="el21zdiwj5hq2" class="animable"></polygon><path d="M338.46,252.9s6.34-11.4,17.73-14.89c0,0-12,2.85-18,12.67Z" style="fill: rgb(184, 184, 184); transform-origin: 347.19px 245.455px;" id="elsu1z6efqi7" class="animable"></path><path d="M338.46,220.6s6.34-11.4,17.73-14.88c0,0-12,2.85-18,12.66Z" style="fill: rgb(184, 184, 184); transform-origin: 347.19px 213.16px;" id="eljwmh65vxj29" class="animable"></path><path d="M338.46,236.75s6.34-11.4,17.73-14.89c0,0-12,2.85-18,12.67Z" style="fill: rgb(184, 184, 184); transform-origin: 347.19px 229.305px;" id="el5i1gd1g056l" class="animable"></path><path d="M337.52,228.83s-6.11-11.4-17.11-14.88c0,0,11.61,2.85,17.42,12.66Z" style="fill: rgb(184, 184, 184); transform-origin: 329.12px 221.39px;" id="elmtgigpynlk" class="animable"></path><path d="M337.52,244.66s-6.11-11.4-17.11-14.88c0,0,11.61,2.85,17.42,12.67Z" style="fill: rgb(184, 184, 184); transform-origin: 329.12px 237.22px;" id="el63n70coi5k7" class="animable"></path><path d="M128.36,243s18.76,1.85,28.26,13.48c0,0,10-13.47,28.09-13.2a36.46,36.46,0,1,0-56.36-.25Z" style="fill: rgb(146, 227, 188); transform-origin: 156.633px 220.02px;" id="elgj29f18hzq" class="animable"></path><g id="elxy0t7a0ss5"><path d="M128.36,243s18.76,1.85,28.26,13.48c0,0,10-13.47,28.09-13.2a36.46,36.46,0,1,0-56.36-.25Z" style="fill: rgb(255, 255, 255); opacity: 0.5; transform-origin: 156.633px 220.02px;" class="animable"></path></g><polygon points="156 186.08 155.37 307.66 158.54 307.66 156 186.08" style="fill: rgb(184, 184, 184); transform-origin: 156.955px 246.87px;" id="el55ljmb7b2o8" class="animable"></polygon><path d="M157,252.9s6.34-11.4,17.73-14.89c0,0-12,2.85-18,12.67Z" style="fill: rgb(184, 184, 184); transform-origin: 165.73px 245.455px;" id="eldsci9o7zfmi" class="animable"></path><path d="M157,220.6s6.34-11.4,17.73-14.88c0,0-12,2.85-18,12.66Z" style="fill: rgb(184, 184, 184); transform-origin: 165.73px 213.16px;" id="elt3lm7p52eah" class="animable"></path><path d="M157,236.75s6.34-11.4,17.73-14.89c0,0-12,2.85-18,12.67Z" style="fill: rgb(184, 184, 184); transform-origin: 165.73px 229.305px;" id="elunxnquuevhe" class="animable"></path><path d="M156,228.83S149.9,217.43,138.9,214c0,0,11.61,2.85,17.42,12.66Z" style="fill: rgb(184, 184, 184); transform-origin: 147.61px 221.415px;" id="el83w7pffhhsx" class="animable"></path><path d="M156,244.66s-6.11-11.4-17.11-14.88c0,0,11.61,2.85,17.42,12.67Z" style="fill: rgb(184, 184, 184); transform-origin: 147.6px 237.22px;" id="elq6b7h17klj" class="animable"></path><line x1="34.77" y1="308.19" x2="466.31" y2="308.19" style="fill: none; stroke: rgb(38, 50, 56); stroke-miterlimit: 10; stroke-width: 1.04742px; transform-origin: 250.54px 308.19px;" id="el2dyl5zs0qr8" class="animable"></line></g><g id="Text--inject-67" class="animable" style="transform-origin: 249.99px 417.435px;"><path d="M164.14,413.28a4.61,4.61,0,0,1-4.92,4.87h-5.36a.11.11,0,0,0-.1.11v7.88a.3.3,0,0,1-.31.31h-.75a.3.3,0,0,1-.31-.31V408.67a.3.3,0,0,1,.31-.31h6.57A4.63,4.63,0,0,1,164.14,413.28Zm-1.36,0a3.45,3.45,0,0,0-3.61-3.71h-5.31a.11.11,0,0,0-.1.1v7.19a.11.11,0,0,0,.1.1h5.31A3.46,3.46,0,0,0,162.78,413.31Z" style="fill: rgb(38, 50, 56); transform-origin: 158.27px 417.402px;" id="el4rel211i0y2" class="animable"></path><path d="M177.59,426.19l-1.11-3.37c0-.08,0-.08-.1-.08h-8c-.05,0-.08,0-.1.08l-1.09,3.37a.32.32,0,0,1-.33.26H166a.24.24,0,0,1-.25-.36l5.72-17.42a.33.33,0,0,1,.33-.26h1.11a.33.33,0,0,1,.33.26L179,426.09c.08.23,0,.36-.26.36h-.8A.32.32,0,0,1,177.59,426.19Zm-8.84-4.58H176a.11.11,0,0,0,.11-.13l-3.66-11.29a.08.08,0,0,0-.16,0l-3.6,11.29S168.67,421.61,168.75,421.61Z" style="fill: rgb(38, 50, 56); transform-origin: 172.373px 417.432px;" id="el2vb91l0kky" class="animable"></path><path d="M181.76,421.14v-7.42c0-3.32,2.34-5.51,5.9-5.51s5.85,2.21,5.85,5.36v.31a.3.3,0,0,1-.31.31h-.75a.3.3,0,0,1-.31-.31v-.29c0-2.47-1.8-4.17-4.48-4.17s-4.54,1.7-4.54,4.25v7.52c0,2.55,1.83,4.25,4.56,4.25s4.46-1.59,4.46-4.09v-2.6a.11.11,0,0,0-.1-.11h-4a.3.3,0,0,1-.31-.31v-.59a.3.3,0,0,1,.31-.31h5.13a.3.3,0,0,1,.31.31V421c0,3.5-2.35,5.62-5.85,5.62S181.76,424.44,181.76,421.14Z" style="fill: rgb(38, 50, 56); transform-origin: 187.635px 417.415px;" id="elpy7rh9x1pf" class="animable"></path><path d="M209.12,409.63H199.4a.11.11,0,0,0-.1.1v6.95a.11.11,0,0,0,.1.11h6.88a.3.3,0,0,1,.31.31v.59a.3.3,0,0,1-.31.31H199.4a.11.11,0,0,0-.1.1v7a.11.11,0,0,0,.1.11h9.72a.29.29,0,0,1,.3.31v.59a.29.29,0,0,1-.3.31H198.24a.3.3,0,0,1-.31-.31V408.72a.3.3,0,0,1,.31-.31h10.88a.29.29,0,0,1,.3.31v.6A.29.29,0,0,1,209.12,409.63Z" style="fill: rgb(38, 50, 56); transform-origin: 203.675px 417.415px;" id="elwx2zq3ppqp" class="animable"></path><path d="M218.82,426.14V408.72a.3.3,0,0,1,.31-.31h.78a.38.38,0,0,1,.36.21l9.25,15c0,.11.12.08.12,0V408.72a.3.3,0,0,1,.31-.31h.75a.3.3,0,0,1,.31.31v17.42a.3.3,0,0,1-.31.31h-.77a.35.35,0,0,1-.36-.21l-9.25-15c0-.1-.13-.07-.13,0v14.89a.3.3,0,0,1-.31.31h-.75A.3.3,0,0,1,218.82,426.14Z" style="fill: rgb(38, 50, 56); transform-origin: 224.915px 417.431px;" id="el95l2s2hmyl5" class="animable"></path><path d="M235.67,420.81v-6.75a5.57,5.57,0,0,1,6-5.85c3.61,0,6,2.34,6,5.85v6.75c0,3.5-2.39,5.85-6,5.85A5.57,5.57,0,0,1,235.67,420.81Zm10.59.05V414a4.62,4.62,0,0,0-9.23,0v6.83a4.62,4.62,0,0,0,9.23,0Z" style="fill: rgb(38, 50, 56); transform-origin: 241.666px 417.435px;" id="el6ub3r9y4ltl" class="animable"></path><path d="M262.54,408.72v.6a.3.3,0,0,1-.31.31h-5.1a.11.11,0,0,0-.11.1v16.41a.3.3,0,0,1-.31.31H256a.3.3,0,0,1-.31-.31V409.73a.11.11,0,0,0-.11-.1h-4.84a.3.3,0,0,1-.31-.31v-.6a.3.3,0,0,1,.31-.31h11.52A.3.3,0,0,1,262.54,408.72Z" style="fill: rgb(38, 50, 56); transform-origin: 256.485px 417.43px;" id="elh74lelw4w9i" class="animable"></path><path d="M282.68,409.63H273a.11.11,0,0,0-.1.1v6.95a.11.11,0,0,0,.1.11h6.85a.29.29,0,0,1,.31.31v.59a.29.29,0,0,1-.31.31H273a.11.11,0,0,0-.1.1v8a.3.3,0,0,1-.31.31h-.75a.3.3,0,0,1-.31-.31V408.72a.3.3,0,0,1,.31-.31h10.85a.3.3,0,0,1,.31.31v.6A.3.3,0,0,1,282.68,409.63Z" style="fill: rgb(38, 50, 56); transform-origin: 277.265px 417.41px;" id="elaryowhjft0v" class="animable"></path><path d="M285.51,420.81v-6.75a5.57,5.57,0,0,1,5.95-5.85c3.61,0,6,2.34,6,5.85v6.75c0,3.5-2.39,5.85-6,5.85A5.57,5.57,0,0,1,285.51,420.81Zm10.59.05V414a4.61,4.61,0,1,0-9.22,0v6.83a4.61,4.61,0,1,0,9.22,0Z" style="fill: rgb(38, 50, 56); transform-origin: 291.481px 417.435px;" id="elzp7o6vvi6r" class="animable"></path><path d="M301.92,421V408.72a.3.3,0,0,1,.31-.31H303a.3.3,0,0,1,.31.31V421a4.62,4.62,0,0,0,9.23,0V408.72a.3.3,0,0,1,.31-.31h.74a.3.3,0,0,1,.31.31V421c0,3.4-2.37,5.67-6,5.67S301.92,424.39,301.92,421Z" style="fill: rgb(38, 50, 56); transform-origin: 307.91px 417.54px;" id="eleku0qd9ky8p" class="animable"></path><path d="M318.94,426.14V408.72a.3.3,0,0,1,.31-.31H320a.38.38,0,0,1,.36.21l9.25,15c.05.11.12.08.12,0V408.72a.3.3,0,0,1,.31-.31h.75a.3.3,0,0,1,.31.31v17.42a.3.3,0,0,1-.31.31h-.77a.35.35,0,0,1-.36-.21l-9.25-15c-.05-.1-.13-.07-.13,0v14.89a.3.3,0,0,1-.31.31h-.75A.3.3,0,0,1,318.94,426.14Z" style="fill: rgb(38, 50, 56); transform-origin: 325.02px 417.431px;" id="eltcdxeqbsws" class="animable"></path><path d="M336,426.14V408.72a.3.3,0,0,1,.31-.31h5.92c3.3,0,5.36,1.86,5.36,4.85v8.35c0,3-2.06,4.84-5.36,4.84h-5.92A.3.3,0,0,1,336,426.14Zm1.47-.9h4.84a3.6,3.6,0,0,0,3.92-3.79v-8a3.57,3.57,0,0,0-3.92-3.78h-4.84a.12.12,0,0,0-.11.1v15.4A.12.12,0,0,0,337.44,425.24Z" style="fill: rgb(38, 50, 56); transform-origin: 341.795px 417.43px;" id="elnqvo0yoa0r7" class="animable"></path></g><g id="Characters--inject-67" class="animable" style="transform-origin: 253.475px 235.54px;"><g id="eldf5yabxyf0q"><path d="M152.59,356.45c0,3-18.43,5.39-41.18,5.39s-41.18-2.41-41.18-5.39,18.44-5.39,41.18-5.39S152.59,353.48,152.59,356.45Z" style="opacity: 0.3; transform-origin: 111.41px 356.45px;" class="animable"></path></g><g id="elmflydyeet1"><path d="M238.8,356.45c0,3-18.44,5.39-41.18,5.39s-41.18-2.41-41.18-5.39,18.44-5.39,41.18-5.39S238.8,353.48,238.8,356.45Z" style="opacity: 0.3; transform-origin: 197.62px 356.45px;" class="animable"></path></g><g id="el275cgefzshv"><path d="M353,356.45c0,3-18.43,5.39-41.17,5.39s-41.18-2.41-41.18-5.39,18.43-5.39,41.18-5.39S353,353.48,353,356.45Z" style="opacity: 0.3; transform-origin: 311.825px 356.45px;" class="animable"></path></g><g id="el5u8lggaoofx"><path d="M448.4,356.45c0,3-18.44,5.39-41.18,5.39S366,359.43,366,356.45s18.44-5.39,41.18-5.39S448.4,353.48,448.4,356.45Z" style="opacity: 0.3; transform-origin: 407.2px 356.45px;" class="animable"></path></g><path d="M316.28,198.77s-1.69,7-1.69,8.18a10.06,10.06,0,0,1-.24,2.17s-3.61,4.33-3.13,5.53a5.83,5.83,0,0,0,2.41,2.16s1.92,7,3.85,7.46a46.34,46.34,0,0,0,6,.72l.72,5.77,9.62-1.44-2.4-8.66,1-7.46s1.68-3.12,0-8.17-5.29-5.29-7.7-5.29A83.06,83.06,0,0,1,316.28,198.77Z" style="fill: rgb(255, 255, 255); stroke: rgb(38, 50, 56); stroke-linecap: round; stroke-linejoin: round; stroke-width: 1.04742px; transform-origin: 322.498px 214.765px;" id="elksfvyk9pvj" class="animable"></path><path d="M320.61,195.17s-8.42-.25-8.18,1.92,8.9,5,8.9,5-2.89,1.92-1.45,3.85,4.81,3.61,4.81,3.61-1,4.09.49,4.33,2.4-1.93,2.64-2.65,2.89-.48,3.61,1.44a10,10,0,0,1,.72,3.13s2.89-8.66,3.37-12.51S325.18,195.17,320.61,195.17Z" style="fill: rgb(38, 50, 56); stroke: rgb(38, 50, 56); stroke-linecap: round; stroke-linejoin: round; stroke-width: 1.04742px; transform-origin: 323.98px 205.481px;" id="elbumweu4mtaw" class="animable"></path><path d="M325.94,214s2.91-6.4,4.65-3.25,1,6.43-.71,6.78-3.14.69-3.14.69" style="fill: rgb(255, 255, 255); stroke: rgb(38, 50, 56); stroke-linecap: round; stroke-linejoin: round; stroke-width: 1.04742px; transform-origin: 328.762px 214.049px;" id="elew5juj6fltk" class="animable"></path><path d="M314.11,280.79c-.47.55-8.18,17.08-9.14,22.61s-7.21,38.49-7.46,39.93-13.46,4.33-14.43,4.57,1,2.89,3.85,3.61,11.07,4.09,13,2.16,4.57-12.75,5.29-13.95,14.26-33.1,14.26-33.1,6.94-15.31,8.38-16.76-1.71-7.86-2.92-9.79S317.48,276.94,314.11,280.79Z" style="fill: rgb(38, 50, 56); stroke: rgb(38, 50, 56); stroke-linecap: round; stroke-linejoin: round; stroke-width: 1.04742px; transform-origin: 305.53px 316.259px;" id="elryns9e86psk" class="animable"></path><path d="M312.67,281s3.37,16.12,5.05,21.89a46.07,46.07,0,0,0,7,13.47c1.93,2.65,11.31,26,11.31,26l1.44,3.61s-.48,1.44-3.12,3.36-10.11,5.05-8.18,5.78,9.62.72,13.23.48a12.5,12.5,0,0,0,8.17-3.85c1.45-1.69-2.4-6.5-2.4-7.46s-8.42-30.3-8.9-31.75-2.89-11.78-2.89-11.78V289s1.21-2.16,1.21-7-3.61-5.78-3.61-5.78l-19.73,1.93Z" style="fill: rgb(38, 50, 56); stroke: rgb(38, 50, 56); stroke-linecap: round; stroke-linejoin: round; stroke-width: 1.04742px; transform-origin: 329.573px 315.978px;" id="elxodwtvknzb9" class="animable"></path><path d="M311,279.59s.49,4.09,1.93,4.33,16.35,4.33,22.85-.48c0,0,1.2-3.61.48-4.57s-2.41-.48-11.06-.48S311,278.39,311,279.59Z" style="fill: rgb(146, 227, 188); stroke: rgb(38, 50, 56); stroke-linecap: round; stroke-linejoin: round; stroke-width: 1.04742px; transform-origin: 323.745px 282.02px;" id="el2aapxx5hi3g" class="animable"></path><path d="M333.11,225.71s-8.9,1.2-12.75,5-7.21,10.83-8.89,17.32-2.89,30.31-.49,31.51,22.61,2.41,26,1-.24-12.75-.24-17.08,3.85-19,3.13-27.17S333.11,225.71,333.11,225.71Z" style="fill: rgb(146, 227, 188); stroke: rgb(38, 50, 56); stroke-linecap: round; stroke-linejoin: round; stroke-width: 1.04742px; transform-origin: 324.796px 253.442px;" id="el78ykev2bfiq" class="animable"></path><path d="M301,250.71c-.11-9.9-4.15-18.35-9.52-22l0-2-14.8.15c-8.33.09-15,11-14.83,24.3s7,24.07,15.34,24l14.8-.15,0-2C297.19,269.14,301.05,260.61,301,250.71Z" style="fill: rgb(38, 50, 56); stroke: rgb(38, 50, 56); stroke-linecap: round; stroke-linejoin: round; stroke-width: 1.04742px; transform-origin: 281.424px 250.935px;" id="elw9rncei1fvr" class="animable"></path><path d="M307.64,250.64c-.11-10.4-4.12-19.28-9.76-23.14l0-2.13-6.34.07c-8.76.09-15.73,11.52-15.58,25.53s7.36,25.29,16.12,25.2l6.34-.07,0-2.12C303.93,270,307.75,261,307.64,250.64Z" style="fill: rgb(255, 255, 255); stroke: rgb(38, 50, 56); stroke-linecap: round; stroke-linejoin: round; stroke-width: 1.04742px; transform-origin: 291.8px 250.77px;" id="elu6m1qdcp1nr" class="animable"></path><g id="elvr7yn59uth"><ellipse cx="298.13" cy="250.74" rx="15.85" ry="25.37" style="fill: rgb(115, 115, 115); stroke: rgb(38, 50, 56); stroke-linecap: round; stroke-linejoin: round; stroke-width: 1.04742px; transform-origin: 298.13px 250.74px; transform: rotate(-0.61deg);" class="animable"></ellipse></g><path d="M310.36,250.14c.07,6.63-3.24,12.05-7.39,12.1s-7.57-5.31-7.64-12,3.24-12,7.39-12.1S310.29,243.5,310.36,250.14Z" style="fill: rgb(38, 50, 56); stroke: rgb(38, 50, 56); stroke-linecap: round; stroke-linejoin: round; stroke-width: 1.04742px; transform-origin: 302.845px 250.189px;" id="elaln65mj9p5f" class="animable"></path><path d="M428.2,300a121.35,121.35,0,0,0,1.05-18.59c-3.25,1.5-22.21,2.05-23.95,2.09s-20.7-.59-23.95-2.09a121.35,121.35,0,0,0,1,18.59c1.31,8.12,12.83,40.59,13.09,42.16a34.94,34.94,0,0,0,1.31,4.46s-6.55,4.71-9.43,6.54-.78,2.62,2.1,2.62,8.9-.79,10.73-.79c1.62,0,4.44-1.41,5.1-1.75.66.34,3.48,1.75,5.09,1.75,1.84,0,7.86.79,10.74.79s5-.79,2.1-2.62-9.43-6.54-9.43-6.54a34.94,34.94,0,0,0,1.31-4.46C415.37,340.55,426.89,308.08,428.2,300Z" style="fill: rgb(38, 50, 56); stroke: rgb(38, 50, 56); stroke-linecap: round; stroke-linejoin: round; stroke-width: 1.04742px; transform-origin: 405.296px 318.595px;" id="elag7eopmr8c7" class="animable"></path><path d="M401.34,230.49s-10.13,3.31-15.36,6.63-10.48,21.3-10.48,22a22.41,22.41,0,0,1-1.22,3.66s-5.24-1.22-6.28,3.14,5.23,9.95,8.55,10.13,4.36-.87,4.36-.87-2.09,4.19-1.22,5.93,8.21,8.21,22.7,8,25-2.62,26.53-4.71,1.75-6.46,1.75-6.46,5.41-1.4,7.33-4.89,1.57-7.16.52-10.82S432.06,247.94,428.4,242s-11.35-9.25-15-10.3S403.78,230.49,401.34,230.49Z" style="fill: rgb(146, 227, 188); stroke: rgb(38, 50, 56); stroke-linecap: round; stroke-linejoin: round; stroke-width: 1.04742px; transform-origin: 403.63px 259.803px;" id="el4edwca4u908" class="animable"></path><path d="M404.41,245.19c1.45-.48,6-4.52,7.75-8.56a19.47,19.47,0,0,0,1.45-4.85l-.23-.07c-3.66-1.05-9.6-1.22-12-1.22,0,0-2.12.69-4.91,1.76a17.77,17.77,0,0,0,1.19,6.32C399.24,242.61,403,245.68,404.41,245.19Z" style="fill: rgb(255, 255, 255); stroke: rgb(38, 50, 56); stroke-linecap: round; stroke-linejoin: round; stroke-width: 1.04742px; transform-origin: 405.04px 237.866px;" id="elykt5p6vv9uh" class="animable"></path><path d="M421.06,253.35S425.25,275.7,430,278" style="fill: none; stroke: rgb(38, 50, 56); stroke-linecap: round; stroke-linejoin: round; stroke-width: 1.04742px; transform-origin: 425.53px 265.675px;" id="el9bwtxzj3k89" class="animable"></path><path d="M380.91,275.18s5.24-19.73,5.59-21.65" style="fill: none; stroke: rgb(38, 50, 56); stroke-linecap: round; stroke-linejoin: round; stroke-width: 1.04742px; transform-origin: 383.705px 264.355px;" id="elpaiabh4i33" class="animable"></path><path d="M427.83,263.45s-2.9.65-2.9,2.75" style="fill: none; stroke: rgb(38, 50, 56); stroke-linecap: round; stroke-linejoin: round; stroke-width: 1.04742px; transform-origin: 426.38px 264.825px;" id="elhgfob92u138" class="animable"></path><path d="M378.56,263.77s3.23,2.1,2.91,5.33" style="fill: none; stroke: rgb(38, 50, 56); stroke-linecap: round; stroke-linejoin: round; stroke-width: 1.04742px; transform-origin: 380.026px 266.435px;" id="eli6adgb8q4yc" class="animable"></path><path d="M400.2,355c1.62,0,4.44-1.41,5.1-1.75.66.34,3.48,1.75,5.09,1.75,1.84,0,7.86.79,10.74.79s5-.79,2.1-2.62c-2.51-1.59-7.77-5.35-9.11-6.31-3.09,2.82-9.2,2.12-9.2,2.12a31.37,31.37,0,0,1-3.67-.78c-1.83-.53-4.45-1.57-4.45-1.57s-6.55,4.71-9.43,6.54-.78,2.62,2.1,2.62S398.37,355,400.2,355Z" style="fill: rgb(146, 227, 188); stroke: rgb(38, 50, 56); stroke-linecap: round; stroke-linejoin: round; stroke-width: 1.04742px; transform-origin: 405.304px 351.21px;" id="elihdv3zze10c" class="animable"></path><line x1="404.92" y1="346.67" x2="404.92" y2="301.01" style="fill: none; stroke: rgb(255, 255, 255); stroke-linecap: round; stroke-linejoin: round; stroke-width: 1.04742px; transform-origin: 404.92px 323.84px;" id="elhr1sewxa1g" class="animable"></line><polyline points="405.3 353.2 404.92 348.93 404.92 346.67" style="fill: none; stroke: rgb(38, 50, 56); stroke-linecap: round; stroke-linejoin: round; stroke-width: 1.04742px; transform-origin: 405.11px 349.935px;" id="elv1qan7dep3" class="animable"></polyline><line x1="401.25" y1="299.44" x2="408.84" y2="299.44" style="fill: none; stroke: rgb(255, 255, 255); stroke-linecap: round; stroke-linejoin: round; stroke-width: 1.04742px; transform-origin: 405.045px 299.44px;" id="eltj4fhj7ukhh" class="animable"></line><path d="M391.33,204.29s-5.44,3.26-4.63,6.12,3.27,3.41,2.73,5S387,218,389.15,219a18.36,18.36,0,0,0,3.82,1.23s2,6.94,5.44,8.16,9.4.41,13.62-.13a7.05,7.05,0,0,0,6.12-5.18c.41-1.49-1.77.28-2.86-1.36s.55-5.85,1.77-9.53-2.45-10.62-7.21-12.93S396,198.16,391.33,204.29Z" style="fill: rgb(38, 50, 56); stroke: rgb(38, 50, 56); stroke-linecap: round; stroke-linejoin: round; stroke-width: 1.04742px; transform-origin: 402.409px 213.598px;" id="elubpxdafu71g" class="animable"></path><path d="M400.47,228a36.87,36.87,0,0,0-1.4,7c-.18,3,2.27,6.29,4.89,6.11s4.88-5.41,5.23-8-.87-9.6-.87-9.6-4,.18-5.59,1.57A9.68,9.68,0,0,0,400.47,228Z" style="fill: rgb(255, 255, 255); stroke: rgb(38, 50, 56); stroke-linecap: round; stroke-linejoin: round; stroke-width: 1.04742px; transform-origin: 404.157px 232.314px;" id="elyjwmfywi39d" class="animable"></path><path d="M396.92,208.1s.13,4.08,4.22,8a25.29,25.29,0,0,0,8.57,5.45,7.53,7.53,0,0,1-.68,2.58,1.89,1.89,0,0,1-1.9,1h-1.37s-2,4.69-4.42,5.37-8.37.21-9.19-5.78-.95-10.89-.27-12.12S396.92,208.1,396.92,208.1Z" style="fill: rgb(255, 255, 255); stroke: rgb(38, 50, 56); stroke-linecap: round; stroke-linejoin: round; stroke-width: 1.04742px; transform-origin: 400.576px 219.418px;" id="elxzw1k69c9g" class="animable"></path><path d="M439.71,260.8a11,11,0,0,0,1.11-4c0-1.82-3.38-4.43-4-5.08s-1.24-.58-1.37.33a3.74,3.74,0,0,0,1.17,2.73,3.06,3.06,0,0,1,1.05,1.57c.06.45-1.12,2.66-.53,4.09S439.39,262.3,439.71,260.8Z" style="fill: rgb(255, 255, 255); stroke: rgb(38, 50, 56); stroke-linecap: round; stroke-linejoin: round; stroke-width: 1.04742px; transform-origin: 438.135px 256.514px;" id="eljelk9t7kixc" class="animable"></path><path d="M304.28,250.59S319,255.3,327.85,266.3s14.66,9.42,25.66,5.76,15.19-16.76,30.38-5.76,18.33,15.18,30.9,8.9,19.37-21.47,30.9-16.24,6.28,32,7.33,45-.53,45.57,2.09,49.76,29.33,1,29.33,1" style="fill: none; stroke: rgb(38, 50, 56); stroke-linecap: round; stroke-linejoin: round; stroke-width: 3.14226px; transform-origin: 394.36px 303.236px;" id="el6o5f3plfo65" class="animable"></path><path d="M331.85,233.11s-2.93-4.78-7.25-3.53c-4.57,1.32-6.93,7.85-8,11.92s-1.79,8.47-3.75,12.26c0,0-8.66-.15-13.49-1.55a114.2,114.2,0,0,1-10.86-4s-1.71-2.39-2.92-2.86-4.35-1.39-4.58-.67,3.64,3.09,3.64,3.09-7.2,1-7.92,1.77,5.09,3.07,5.09,3.07,2.17.7,7.45-.56c0,0,19.37,12.3,23.23,13.71s6,1.86,8.63-3.22,11.36-17.68,12.75-22.75" style="fill: rgb(146, 227, 188); stroke: rgb(38, 50, 56); stroke-linecap: round; stroke-linejoin: round; stroke-width: 1.04742px; transform-origin: 305.264px 248.036px;" id="el7599yfv4q1s" class="animable"></path><path d="M293.53,250.25c-2.83-1.06-5-2-5-2s-1.71-2.39-2.92-2.86-4.35-1.39-4.58-.67,3.64,3.09,3.64,3.09-7.2,1-7.92,1.77,5.09,3.07,5.09,3.07,2.17.7,7.45-.56l2.71,1.71Z" style="fill: rgb(255, 255, 255); stroke: rgb(38, 50, 56); stroke-linecap: round; stroke-linejoin: round; stroke-width: 1.04742px; transform-origin: 285.109px 249.127px;" id="elda2k9h4gzn9" class="animable"></path><path d="M368.19,262.64a11,11,0,0,1-1.11-4c0-1.82,3.39-4.42,4-5.07s1.23-.58,1.36.33a3.74,3.74,0,0,1-1.17,2.73,3.06,3.06,0,0,0-1.05,1.57c-.06.44,1.12,2.66.53,4.09S368.51,264.13,368.19,262.64Z" style="fill: rgb(255, 255, 255); stroke: rgb(38, 50, 56); stroke-linecap: round; stroke-linejoin: round; stroke-width: 1.04742px; transform-origin: 369.76px 258.359px;" id="ellovgm95xr1m" class="animable"></path><path d="M370.52,257.15s-2.79,5.15-1.17,7,3.19-4.16,3.49-5.82S371.55,255,370.52,257.15Z" style="fill: rgb(255, 255, 255); stroke: rgb(38, 50, 56); stroke-linecap: round; stroke-linejoin: round; stroke-width: 1.04742px; transform-origin: 370.861px 260.316px;" id="ele9zjfp91hm7" class="animable"></path><path d="M372.82,259s-2.79,5.15-1.17,7,3.19-4.16,3.49-5.82S373.85,256.79,372.82,259Z" style="fill: rgb(255, 255, 255); stroke: rgb(38, 50, 56); stroke-linecap: round; stroke-linejoin: round; stroke-width: 1.04742px; transform-origin: 373.161px 262.152px;" id="el6v000bni8eg" class="animable"></path><path d="M375.35,259.43s-2.79,5.15-1.17,7,3.19-4.16,3.49-5.82S376.38,257.27,375.35,259.43Z" style="fill: rgb(255, 255, 255); stroke: rgb(38, 50, 56); stroke-linecap: round; stroke-linejoin: round; stroke-width: 1.04742px; transform-origin: 375.691px 262.593px;" id="eln21twgjaqq8" class="animable"></path><path d="M378.59,259.47s-2.6,4-1.18,5.51,2.95-3.24,3.25-4.61S379.55,257.67,378.59,259.47Z" style="fill: rgb(255, 255, 255); stroke: rgb(38, 50, 56); stroke-linecap: round; stroke-linejoin: round; stroke-width: 1.04742px; transform-origin: 378.843px 261.935px;" id="eljltry2q582g" class="animable"></path><path d="M437.85,257.35s2.79,5.15,1.17,7-3.19-4.17-3.49-5.83S436.82,255.19,437.85,257.35Z" style="fill: rgb(255, 255, 255); stroke: rgb(38, 50, 56); stroke-linecap: round; stroke-linejoin: round; stroke-width: 1.04742px; transform-origin: 437.509px 260.512px;" id="ellebojk0na2" class="animable"></path><path d="M435.55,259.15s2.79,5.15,1.17,7-3.19-4.17-3.49-5.83S434.52,257,435.55,259.15Z" style="fill: rgb(255, 255, 255); stroke: rgb(38, 50, 56); stroke-linecap: round; stroke-linejoin: round; stroke-width: 1.04742px; transform-origin: 435.209px 262.314px;" id="eld5h3cpmjar8" class="animable"></path><path d="M433,259.63s2.79,5.15,1.17,7-3.19-4.16-3.48-5.83S432,257.47,433,259.63Z" style="fill: rgb(255, 255, 255); stroke: rgb(38, 50, 56); stroke-linecap: round; stroke-linejoin: round; stroke-width: 1.04742px; transform-origin: 432.666px 262.791px;" id="ellh67ua8x36" class="animable"></path><path d="M429.78,259.67s2.6,4.05,1.18,5.51-2.95-3.24-3.24-4.61S428.82,257.87,429.78,259.67Z" style="fill: rgb(255, 255, 255); stroke: rgb(38, 50, 56); stroke-linecap: round; stroke-linejoin: round; stroke-width: 1.04742px; transform-origin: 429.533px 262.128px;" id="el3c1e624xbpc" class="animable"></path><path d="M85.72,316.65v5.68a18,18,0,0,0-4.13,7.58c-1.21,4.64-5,24.61-4,25.13S88,357.71,91,357.26c3.44-.52,6.37-.34,4.64-2.24s-10.82-7.21-10.82-7.21,10-14.46,12.22-19.8,2.58-13.6,2.58-13.6l-13.42-.51Z" style="fill: rgb(255, 255, 255); stroke: rgb(38, 50, 56); stroke-linecap: round; stroke-linejoin: round; stroke-width: 1.04742px; transform-origin: 88.5219px 335.611px;" id="elqymm9xfejcb" class="animable"></path><path d="M91,357.26c3.44-.52,6.37-.34,4.64-2.24s-10.82-7.21-10.82-7.21l-.34,2.06-6.55-.8c-.48,3.34-.69,5.79-.34,6C78.66,355.55,88,357.71,91,357.26Z" style="fill: rgb(38, 50, 56); stroke: rgb(38, 50, 56); stroke-linecap: round; stroke-linejoin: round; stroke-width: 1.04742px; transform-origin: 86.784px 352.566px;" id="elvy3azasbg3f" class="animable"></path><path d="M118.6,319.59l1.55,2.76a10.07,10.07,0,0,0-.52,8.09c1.55,4.82,5.17,22.55,5.17,23.58s2.23,1.72,4,1.72,6.67.34,7.36.34,5.68.86,7.4-.17-2.19-3.1-4.77-4.3-8.26-4.3-8.26-4.3,1.37-14.12,1.37-20.32,1.38-8.26-.51-12.05-13.77,1.73-13.77,1.73Z" style="fill: rgb(255, 255, 255); stroke: rgb(38, 50, 56); stroke-linecap: round; stroke-linejoin: round; stroke-width: 1.04742px; transform-origin: 130.802px 335.014px;" id="eltyih00zfkkb" class="animable"></path><path d="M138.74,351.61c-2.58-1.21-8.26-4.3-8.26-4.3l-.69,2.58-5.53,1c.33,1.72.54,2.9.54,3.14,0,1,2.23,1.72,4,1.72s6.67.34,7.36.34,5.68.86,7.4-.17S141.32,352.81,138.74,351.61Z" style="fill: rgb(38, 50, 56); stroke: rgb(38, 50, 56); stroke-linecap: round; stroke-linejoin: round; stroke-width: 1.04742px; transform-origin: 134.12px 351.868px;" id="elepe2aryrfkj" class="animable"></path><path d="M109.33,205a47.36,47.36,0,0,0-4.61-6.54c-2.37-2.67-9.8-2.52-13.06,1s-2.23,9.8-1,11.58,3.71,10.1,3.71,10.1l.59,5.94,13.81,4.9-2.82-9.65s5.35-1,5.79-2.67-.89-7.28-.89-7.28,1.78-1.19,1.63-2.23S109.33,205,109.33,205Z" style="fill: rgb(255, 255, 255); stroke: rgb(38, 50, 56); stroke-linecap: round; stroke-linejoin: round; stroke-width: 1.04742px; transform-origin: 100.983px 214.299px;" id="elblyzqxw2mjj" class="animable"></path><path d="M93.44,211.4s2.36,2,3.65-.29,2.27-4.53,2.27-6.47-4.85-3.55-1.62-4.85,5.56,1.59,7-1.31.13-3.21-7.63-3.21-11.64,3.88-10,8.73a65.31,65.31,0,0,0,4.85,10.34Z" style="fill: rgb(38, 50, 56); stroke: rgb(38, 50, 56); stroke-linecap: round; stroke-linejoin: round; stroke-width: 1.04742px; transform-origin: 95.9956px 204.805px;" id="el12eue9uv60u" class="animable"></path><path d="M109.77,208.43a3.71,3.71,0,1,1-3.71-3.71A3.71,3.71,0,0,1,109.77,208.43Z" style="fill: none; stroke: rgb(38, 50, 56); stroke-linecap: round; stroke-linejoin: round; stroke-width: 1.04742px; transform-origin: 106.06px 208.43px;" id="elgbqfj7i49o" class="animable"></path><path d="M109.23,205.14a3.62,3.62,0,0,1,1.36-.27,3.49,3.49,0,0,1,1.69,6.54" style="fill: none; stroke: rgb(38, 50, 56); stroke-linecap: round; stroke-linejoin: round; stroke-width: 1.04742px; transform-origin: 111.652px 208.14px;" id="elkmzufmdsmen" class="animable"></path><line x1="102.35" y1="208.43" x2="93.44" y2="211.4" style="fill: rgb(255, 255, 255); stroke: rgb(38, 50, 56); stroke-linecap: round; stroke-linejoin: round; stroke-width: 1.04742px; transform-origin: 97.895px 209.915px;" id="eln9uokcdhy7" class="animable"></line><path d="M96,213.33s-1.78-3.71-3.56-3-.89,6.54.89,7.13a3.84,3.84,0,0,0,3.41-.89s1.49,3.12,3.27,4" style="fill: rgb(255, 255, 255); stroke: rgb(38, 50, 56); stroke-linecap: round; stroke-linejoin: round; stroke-width: 1.04742px; transform-origin: 95.7399px 215.405px;" id="el3uu5kscuqni" class="animable"></path><path d="M84.32,280l-1.11,14.22-3.32,21.05s7.76,6.09,15,6.09,9.23-.92,9.23-.92l4.06-21.6,4.06,22.71s8-1.29,13.3-2.59a35.08,35.08,0,0,0,10.34-4.8l-10.71-27.88-2.32-14.38s-12,1.11-19.21,1.48-16.8-1.48-16.8-1.48Z" style="fill: rgb(146, 227, 188); stroke: rgb(38, 50, 56); stroke-linecap: round; stroke-linejoin: round; stroke-width: 1.04742px; transform-origin: 107.885px 296.725px;" id="elfofp7rzh8cv" class="animable"></path><path d="M91.93,223.18s17,5.93,22.25,11.69c2.9,3.2,6.15,25.1,7.32,30.45s3.21,16,3.21,16-10.37,4.68-18.39,4.85-23.41-3.51-23.41-3.51,1.83-23.73,1.83-34.76.17-18.23,2-21.74C86.75,226.19,89.76,222.84,91.93,223.18Z" style="fill: rgb(38, 50, 56); stroke: rgb(38, 50, 56); stroke-linecap: round; stroke-linejoin: round; stroke-width: 1.04742px; transform-origin: 103.81px 254.666px;" id="elfmb4yq8m6rf" class="animable"></path><path d="M87.46,284.38s.92,15.51,0,21.24a44.06,44.06,0,0,1-3.32,10.71" style="fill: none; stroke: rgb(38, 50, 56); stroke-linecap: round; stroke-linejoin: round; stroke-width: 1.04742px; transform-origin: 86.0044px 300.355px;" id="elrgmag0xuwp9" class="animable"></path><path d="M87.83,291.77a8.47,8.47,0,0,0,5.54-6.28" style="fill: none; stroke: rgb(38, 50, 56); stroke-linecap: round; stroke-linejoin: round; stroke-width: 1.04742px; transform-origin: 90.6px 288.63px;" id="elflth6ffa84" class="animable"></path><path d="M80.81,312.27s9.24,7.94,23.64,5" style="fill: none; stroke: rgb(38, 50, 56); stroke-linecap: round; stroke-linejoin: round; stroke-width: 1.04742px; transform-origin: 92.63px 315.097px;" id="el7bllmqmt3u4" class="animable"></path><path d="M111.84,316.88s15.14-1.66,21.79-6.09" style="fill: none; stroke: rgb(38, 50, 56); stroke-linecap: round; stroke-linejoin: round; stroke-width: 1.04742px; transform-origin: 122.735px 313.835px;" id="elitgafc0bzjj" class="animable"></path><path d="M179.56,216s-1.46,1.08-6.55,4.8-1.08,9.34-1.08,9.34-3.64.57-8.5,5.68,2.17,13.88,8.74,15.25,14.25-6.76,16.55-14.3-.74-18.91-2.27-21.26S179.56,216,179.56,216Z" style="fill: rgb(38, 50, 56); stroke: rgb(38, 50, 56); stroke-linecap: round; stroke-linejoin: round; stroke-width: 1.04742px; transform-origin: 175.682px 232.901px;" id="elb3uxvvfbly" class="animable"></path><path d="M198.84,215s2.53-3.91.24-9.58-9.13-8.26-15.79-4.15A11.73,11.73,0,0,0,178,214.54c.65,2.62,3.93,6.65,4.62,6.71s6.68,2.24,10.77.33S198.84,215,198.84,215Z" style="fill: rgb(38, 50, 56); stroke: rgb(38, 50, 56); stroke-linecap: round; stroke-linejoin: round; stroke-width: 1.04742px; transform-origin: 188.799px 210.811px;" id="elp2r2o8ivcr" class="animable"></path><path d="M169.41,347s4.75,7.39,13,8.65.83-6.14-.56-7.26S170.53,344.85,169.41,347Z" style="fill: rgb(115, 115, 115); stroke: rgb(38, 50, 56); stroke-linecap: round; stroke-linejoin: round; stroke-width: 1.04742px; transform-origin: 177.827px 350.967px;" id="eljoa105962te" class="animable"></path><path d="M213.36,348.9s9.07,2.23,8.37,4.19-8.09,1.81-12.41.69-8.38-2.79-7.82-4.6S213.36,348.9,213.36,348.9Z" style="fill: rgb(115, 115, 115); stroke: rgb(38, 50, 56); stroke-linecap: round; stroke-linejoin: round; stroke-width: 1.04742px; transform-origin: 211.608px 351.447px;" id="elwkde9h3f8p" class="animable"></path><path d="M187.57,229.7s-12.14,1.78-14.36,6.07.91,27.67.91,27.67-5.18,11.42-5.25,18.78,3.21,20.31,2.95,23.54-3.58,40-3.58,41,7,3.24,17.09,4.44,29.39-2.39,29.39-2.39-.38-21.7.63-34.64-.43-24.57-3-29.4-14.54-22.22-14.54-22.22,5.8-10.52,6.16-15.12-1.51-7-5.89-12.29A15.27,15.27,0,0,0,187.57,229.7Z" style="fill: rgb(146, 227, 188); stroke: rgb(38, 50, 56); stroke-linecap: round; stroke-linejoin: round; stroke-width: 1.04742px; transform-origin: 191.957px 290.573px;" id="elddiia6qwcn5" class="animable"></path><path d="M197.84,262.56s5.8-10.52,6.16-15.12-1.51-7-5.89-12.29c-.21-.26-.43-.49-.65-.73l-.16.15c-4.5,7.35-19.38,19.91-23.81,23.57.34,3.13.63,5.3.63,5.3s-5.18,11.42-5.25,18.78a67.11,67.11,0,0,0,1,10c10.51-6,24.57-17.23,32.18-23.49C199.67,265.21,197.84,262.56,197.84,262.56Z" style="fill: rgb(115, 115, 115); stroke: rgb(38, 50, 56); stroke-linecap: round; stroke-linejoin: round; stroke-width: 1.04742px; transform-origin: 186.457px 263.32px;" id="elymm1o4mpy0i" class="animable"></path><path d="M185.33,221.12a75.07,75.07,0,0,1,.55,8.27c-.16,2.05.5,6.73,4,8.2s5.7-.58,5.69-2.64a20.8,20.8,0,0,0-1-5l.1-5.65S188.63,220.52,185.33,221.12Z" style="fill: rgb(255, 255, 255); stroke: rgb(38, 50, 56); stroke-linecap: round; stroke-linejoin: round; stroke-width: 1.04742px; transform-origin: 190.45px 229.572px;" id="el9a4u73woax" class="animable"></path><path d="M182.19,217.45s-2.57-2.26-2.65,1,2.92,4.34,3.58,4.56a2.21,2.21,0,0,0,1.58-.39s4.66,4,8.4,4.26,5.26-1.47,6.14-8.26-6.13-13.68-6.13-13.68S187.11,216,182.19,217.45Z" style="fill: rgb(255, 255, 255); stroke: rgb(38, 50, 56); stroke-linecap: round; stroke-linejoin: round; stroke-width: 1.04742px; transform-origin: 189.427px 215.922px;" id="eldg83e0h0p1" class="animable"></path><path d="M125,281.18a9,9,0,0,1,.56-3.4c.62-1.36,4-2.14,4.75-2.41s1.13,0,.91.72a3.1,3.1,0,0,1-1.81,1.64,2.54,2.54,0,0,0-1.33.81c-.19.32-.07,2.37-1,3.24S124.69,282.41,125,281.18Z" style="fill: rgb(255, 255, 255); stroke: rgb(38, 50, 56); stroke-linecap: round; stroke-linejoin: round; stroke-width: 1.04742px; transform-origin: 128.12px 278.783px;" id="elzg9z5ac1yx" class="animable"></path><path d="M201.64,251.11s-12-1.57-17.29,6.81-15.18,37.7-33.51,42.42-23.57-33-34.57-31.95c-10.48,1-17.8,0-24.09,11.52-3.36,6.17-20.16,73.54-28.1,74.23-25.29,2.21-41.57.77-41.57.77" style="fill: none; stroke: rgb(38, 50, 56); stroke-linecap: round; stroke-linejoin: round; stroke-width: 3.14226px; transform-origin: 112.075px 303.182px;" id="elahffhagu7dd" class="animable"></path><path d="M92.71,223.66s-2.77-1.11-6.47,1.1-13.66,26.41-12.92,29,11.26,7.39,17.17,9.05,16.62,3.7,16.62,3.7,3.32,5.17,4.43,5.35a24.06,24.06,0,0,0,4.8-.55s2,1.66,2.77-.19-.74-4.24-2.4-6.09-8.68-2.77-8.68-2.77L89,249.14,97,234.37" style="fill: rgb(38, 50, 56); stroke: rgb(38, 50, 56); stroke-linecap: round; stroke-linejoin: round; stroke-width: 1.04742px; transform-origin: 96.2988px 247.688px;" id="elux77a50lt8" class="animable"></path><path d="M111.54,271.85a24.06,24.06,0,0,0,4.8-.55s2,1.66,2.77-.19-.74-4.24-2.4-6.09-8.68-2.77-8.68-2.77L89,249.14l2.84-5.29c-7.11-4.43-11.83-4.1-14.38-3.21-2.55,6.12-4.49,11.92-4.15,13.11.74,2.59,11.26,7.39,17.17,9.05s16.62,3.7,16.62,3.7S110.43,271.67,111.54,271.85Z" style="fill: rgb(255, 255, 255); stroke: rgb(38, 50, 56); stroke-linecap: round; stroke-linejoin: round; stroke-width: 1.04742px; transform-origin: 96.294px 256.038px;" id="elu9afi0tgsv" class="animable"></path><path d="M230.49,251.52c-.81-8.73-5-15.9-10-18.75l-.16-1.78-13.06,1.21c-7.35.68-12.42,10.77-11.33,22.53s7.93,20.73,15.28,20l13.06-1.21-.17-1.78C228.51,268.06,231.3,260.25,230.49,251.52Z" style="fill: rgb(38, 50, 56); stroke: rgb(38, 50, 56); stroke-linecap: round; stroke-linejoin: round; stroke-width: 1.04742px; transform-origin: 213.211px 252.881px;" id="eland2tu6ixsj" class="animable"></path><path d="M236.4,251c-.85-9.17-5-16.72-10.29-19.72l-.18-1.87-5.59.52c-7.72.72-13.05,11.31-11.91,23.67s8.34,21.79,16.06,21.07l5.59-.52-.17-1.87C234.53,268.34,237.25,260.14,236.4,251Z" style="fill: rgb(255, 255, 255); stroke: rgb(38, 50, 56); stroke-linecap: round; stroke-linejoin: round; stroke-width: 1.04742px; transform-origin: 222.416px 252.059px;" id="el9r21x4kbtbj" class="animable"></path><g id="elg6un2gicf6f"><ellipse cx="228.01" cy="251.75" rx="14.04" ry="22.47" style="fill: rgb(255, 255, 255); stroke: rgb(38, 50, 56); stroke-linecap: round; stroke-linejoin: round; stroke-width: 1.04742px; transform-origin: 228.01px 251.75px; transform: rotate(-5.3deg);" class="animable"></ellipse></g><path d="M248,243.23l-21.69,2a2.32,2.32,0,0,1-2.53-2.1h0a2.32,2.32,0,0,1,2.1-2.53l21.69-2a2.32,2.32,0,0,1,2.53,2.1h0A2.32,2.32,0,0,1,248,243.23Z" style="fill: rgb(115, 115, 115); stroke: rgb(38, 50, 56); stroke-linecap: round; stroke-linejoin: round; stroke-width: 1.04742px; transform-origin: 236.94px 241.915px;" id="elaj093p3s8sd" class="animable"></path><path d="M249.61,260.42l-21.69,2a2.32,2.32,0,0,1-2.53-2.1h0a2.32,2.32,0,0,1,2.1-2.53l21.69-2a2.34,2.34,0,0,1,2.53,2.1h0A2.32,2.32,0,0,1,249.61,260.42Z" style="fill: rgb(115, 115, 115); stroke: rgb(38, 50, 56); stroke-linecap: round; stroke-linejoin: round; stroke-width: 1.04742px; transform-origin: 238.55px 259.106px;" id="elyl21hsgginr" class="animable"></path><path d="M180.07,231.33s-5.22,1-7.69,4-7.54,26.15-6.37,28.81,19.92,6,25.71,6.48a83.17,83.17,0,0,0,13.94-.62s5-.13,6.37-.36,3.89-1.58,3.93-2.09-.21-1.73-2.08-1.88-5.88-1.49-6.39-1.53a32.6,32.6,0,0,1,3.65-.74s.26-1-1.8-1-3.93-.14-4.71,1a17.2,17.2,0,0,0-1.42,2.8s-11.55.81-17.82-2.25-8.25-4.08-8.25-4.08l4.5-18" style="fill: rgb(146, 227, 188); stroke: rgb(38, 50, 56); stroke-linecap: round; stroke-linejoin: round; stroke-width: 1.04742px; transform-origin: 190.901px 251.008px;" id="elyupo3u7vlj" class="animable"></path><path d="M212,269.67c1.39-.23,3.89-1.58,3.93-2.09s-.21-1.73-2.08-1.88-5.88-1.49-6.39-1.53a32.6,32.6,0,0,1,3.65-.74s.26-1-1.8-1-3.93-.14-4.71,1a17.2,17.2,0,0,0-1.42,2.8s-11.55.81-17.82-2.25-8.25-4.08-8.25-4.08l2.74-11a39.2,39.2,0,0,0-11.17-2.77c-1.87,7.54-3.4,16.42-2.7,18,1.16,2.66,19.92,6,25.71,6.48a83.17,83.17,0,0,0,13.94-.62S210.64,269.9,212,269.67Z" style="fill: rgb(255, 255, 255); stroke: rgb(38, 50, 56); stroke-linecap: round; stroke-linejoin: round; stroke-width: 1.04742px; transform-origin: 190.87px 258.403px;" id="el6r59nifswsr" class="animable"></path><path d="M127.54,279.24s-3.86,2.89-3.27,4.8,3.81-2,4.61-3.15S129.05,278,127.54,279.24Z" style="fill: rgb(255, 255, 255); stroke: rgb(38, 50, 56); stroke-linecap: round; stroke-linejoin: round; stroke-width: 1.04742px; transform-origin: 126.719px 281.685px;" id="elvl8jrh1ntnk" class="animable"></path><path d="M128.3,281.83s-3.85,2.89-3.27,4.8,3.82-2,4.61-3.15S129.81,280.57,128.3,281.83Z" style="fill: rgb(255, 255, 255); stroke: rgb(38, 50, 56); stroke-linecap: round; stroke-linejoin: round; stroke-width: 1.04742px; transform-origin: 127.477px 284.271px;" id="el0035hobujpso8" class="animable"></path><path d="M130.13,283.51s-3.85,2.89-3.26,4.8,3.81-2,4.61-3.15S131.65,282.25,130.13,283.51Z" style="fill: rgb(255, 255, 255); stroke: rgb(38, 50, 56); stroke-linecap: round; stroke-linejoin: round; stroke-width: 1.04742px; transform-origin: 129.319px 285.951px;" id="el7jwjez85mnf" class="animable"></path><path d="M131.64,284.87s-3.33,2.14-2.77,3.72,3.31-1.41,4-2.33S133,283.86,131.64,284.87Z" style="fill: rgb(255, 255, 255); stroke: rgb(38, 50, 56); stroke-linecap: round; stroke-linejoin: round; stroke-width: 1.04742px; transform-origin: 130.986px 286.787px;" id="elrlmvewlmcb" class="animable"></path><path d="M176.18,138.71V124c0-8.84,6.11-14.76,15.25-14.76s15.32,5.92,15.32,14.76v14.69c0,8.9-6.11,14.82-15.32,14.82S176.18,147.61,176.18,138.71Zm24.64.25V124c0-5.74-3.77-9.57-9.39-9.57s-9.32,3.83-9.32,9.57v15c0,5.68,3.77,9.45,9.32,9.45S200.82,144.64,200.82,139Z" style="fill: rgb(38, 50, 56); stroke: rgb(38, 50, 56); stroke-linecap: round; stroke-linejoin: round; stroke-width: 1.04742px; transform-origin: 191.465px 131.375px;" id="elveqm9qdgwli" class="animable"></path><path d="M215.21,144.7a25,25,0,0,1-1.11-7.53,24,24,0,0,1,1.05-7.41c1.79-5.44,6.55-8.71,12.84-8.71,6,0,10.63,3.27,12.48,8.65a23.34,23.34,0,0,1,1.11,7.41,24.54,24.54,0,0,1-1.11,7.59c-1.85,5.5-6.55,8.77-12.54,8.77C221.76,153.47,217,150.2,215.21,144.7Zm19.7-1.66a22.88,22.88,0,0,0,.68-5.81,23.59,23.59,0,0,0-.62-5.74,7.4,7.4,0,0,0-14.2,0,20.65,20.65,0,0,0-.68,5.74,21.83,21.83,0,0,0,.68,5.81,7.36,7.36,0,0,0,14.14,0Z" style="fill: rgb(38, 50, 56); stroke: rgb(38, 50, 56); stroke-linecap: round; stroke-linejoin: round; stroke-width: 1.04742px; transform-origin: 227.839px 137.26px;" id="elxybcvjtlj29" class="animable"></path><path d="M275.92,137.35a25.28,25.28,0,0,1-.93,7.48c-1.67,5.31-5.62,8.64-11.86,8.64a9.33,9.33,0,0,1-7.16-3.15c-.19-.18-.37-.12-.37.13v13.4a.87.87,0,0,1-.93.92H250.6a.87.87,0,0,1-.93-.92V122.47a.88.88,0,0,1,.93-.93h4.07a.88.88,0,0,1,.93.93v1.61c0,.24.18.37.37.18a9.19,9.19,0,0,1,7.16-3.21c6.06,0,9.95,3.21,11.67,8.4A23.29,23.29,0,0,1,275.92,137.35Zm-5.93-.12a16.15,16.15,0,0,0-1.55-7.66,6.26,6.26,0,0,0-5.92-3.39,5.94,5.94,0,0,0-5.38,3.33c-1,1.79-1.48,4.39-1.48,7.78s.56,6.05,1.61,7.91a5.74,5.74,0,0,0,5.25,3.15,6.2,6.2,0,0,0,5.49-3A14.62,14.62,0,0,0,270,137.23Z" style="fill: rgb(38, 50, 56); stroke: rgb(38, 50, 56); stroke-linecap: round; stroke-linejoin: round; stroke-width: 1.04742px; transform-origin: 262.8px 142.91px;" id="el6slg5mqpfkq" class="animable"></path><path d="M282.09,144.89v-.37a.88.88,0,0,1,.93-.93h3.83c.55,0,.92.19.92.43v.5c0,2.22,2.72,4.32,6.61,4.32s6.3-1.85,6.3-4.26c0-2.66-3.09-3.52-6.79-4.57-5.44-1.48-11.55-3.4-11.55-9.76,0-5.62,4.82-9,11.86-9,7.28,0,12,3.76,12,8.89,0,.49-.37.8-.93.8h-3.7c-.56,0-.93-.18-.93-.43v-.37c0-2.29-2.41-4.2-6.54-4.2-3.59,0-6.12,1.42-6.12,3.89,0,2.66,3,3.58,6.92,4.69,5.31,1.42,11.67,3.22,11.67,9.7,0,5.62-4.82,9.14-12.17,9.14S282.09,149.58,282.09,144.89Z" style="fill: rgb(38, 50, 56); stroke: rgb(38, 50, 56); stroke-linecap: round; stroke-linejoin: round; stroke-width: 1.04742px; transform-origin: 294.329px 137.305px;" id="elf5terpik6eo" class="animable"></path><path d="M314.82,148.53a4.49,4.49,0,0,1,9,0,4.37,4.37,0,0,1-4.51,4.26A4.28,4.28,0,0,1,314.82,148.53Zm2.16-10.8-.55-27a.88.88,0,0,1,.93-.93h4.07a.88.88,0,0,1,.93.93l-.5,27a.87.87,0,0,1-.92.92h-3A.88.88,0,0,1,317,137.73Z" style="fill: rgb(38, 50, 56); stroke: rgb(38, 50, 56); stroke-linecap: round; stroke-linejoin: round; stroke-width: 1.04742px; transform-origin: 319.32px 131.297px;" id="el6x39sberidr" class="animable"></path></g><defs>     <filter id="active" height="200%">         <feMorphology in="SourceAlpha" result="DILATED" operator="dilate" radius="2"></feMorphology>                <feFlood flood-color="#32DFEC" flood-opacity="1" result="PINK"></feFlood>        <feComposite in="PINK" in2="DILATED" operator="in" result="OUTLINE"></feComposite>        <feMerge>            <feMergeNode in="OUTLINE"></feMergeNode>            <feMergeNode in="SourceGraphic"></feMergeNode>        </feMerge>    </filter>    <filter id="hover" height="200%">        <feMorphology in="SourceAlpha" result="DILATED" operator="dilate" radius="2"></feMorphology>                <feFlood flood-color="#ff0000" flood-opacity="0.5" result="PINK"></feFlood>        <feComposite in="PINK" in2="DILATED" operator="in" result="OUTLINE"></feComposite>        <feMerge>            <feMergeNode in="OUTLINE"></feMergeNode>            <feMergeNode in="SourceGraphic"></feMergeNode>        </feMerge>            <feColorMatrix type="matrix" values="0   0   0   0   0                0   1   0   0   0                0   0   0   0   0                0   0   0   1   0 "></feColorMatrix>    </filter></defs></svg>